<svg viewBox="0 0 622 539" width="622" height="539" xmlns="http://www.w3.org/2000/svg">
  <defs>
    <linearGradient x1="64.7533159%" y1="8.3089821%" x2="48.9128276%" y2="71.8095487%" id="a">
      <stop stop-color="#BBC7EB" offset="0%"/>
      <stop stop-color="#BBC7EB" stop-opacity="0" offset="100%"/>
    </linearGradient>
    <linearGradient x1="64.7533159%" y1="8.3089821%" x2="48.9128276%" y2="71.8095487%" id="b">
      <stop stop-color="#E1EBF8" offset="0%"/>
      <stop stop-color="#BBC7EB" stop-opacity="0" offset="100%"/>
    </linearGradient>
    <linearGradient x1="32.0612755%" y1="7.7694039%" x2="52.4715717%" y2="70.3973023%" id="c">
      <stop stop-color="#BBC7EB" offset="0%"/>
      <stop stop-color="#BBC7EB" stop-opacity="0" offset="100%"/>
    </linearGradient>
    <linearGradient x1="50.7261248%" y1="26.8552147%" x2="58.6674891%" y2="78.5506748%" id="d">
      <stop stop-color="#003B36" offset="0%"/>
      <stop stop-color="#003B36" stop-opacity="0" offset="100%"/>
    </linearGradient>
    <linearGradient x1="49.8432432%" y1="61.3134579%" x2="50.7519624%" y2="-4.2683489%" id="e">
      <stop offset="0%"/>
      <stop stop-opacity="0" offset="100%"/>
    </linearGradient>
    <linearGradient x1="155.230323%" y1="78.2435714%" x2="45.7947581%" y2="48.8714286%" id="f">
      <stop offset="0%"/>
      <stop stop-opacity="0" offset="100%"/>
    </linearGradient>
    <linearGradient x1="67.6083656%" y1="260.42071%" x2="45.338588%" y2="-6.410355%" id="g">
      <stop offset="0%"/>
      <stop stop-opacity="0" offset="100%"/>
    </linearGradient>
    <linearGradient x1="152.073637%" y1="53.1222348%" x2="45.9580089%" y2="49.8594244%" id="h">
      <stop offset="0%"/>
      <stop stop-opacity="0" offset="100%"/>
    </linearGradient>
    <linearGradient x1="116.760766%" y1="115.33353%" x2="33.0375%" y2="33.9117807%" id="i">
      <stop offset="0%"/>
      <stop stop-opacity="0" offset="100%"/>
    </linearGradient>
    <linearGradient x1="133.237416%" y1="188.24434%" x2="22.5520787%" y2="4.5382076%" id="j">
      <stop stop-color="#7D1230" offset="0%"/>
      <stop stop-color="#7D1230" stop-opacity="0" offset="100%"/>
    </linearGradient>
    <linearGradient x1="150.207987%" y1="52.0132505%" x2="46.0819886%" y2="50.0093685%" id="k">
      <stop offset="0%"/>
      <stop stop-opacity="0" offset="100%"/>
    </linearGradient>
    <linearGradient x1="132.226966%" y1="93.2358675%" x2="24.5057428%" y2="46.009338%" id="l">
      <stop stop-color="#7D1230" offset="0%"/>
      <stop stop-color="#7D1230" stop-opacity="0" offset="100%"/>
    </linearGradient>
    <linearGradient x1="-10.5424772%" y1="-19.3398467%" x2="74.0316559%" y2="75.390166%" id="m">
      <stop stop-color="#7D1230" offset="0%"/>
      <stop stop-color="#7D1230" stop-opacity="0" offset="100%"/>
    </linearGradient>
    <linearGradient x1="36.2743043%" y1="11.774771%" x2="50.3245826%" y2="61.0468776%" id="n">
      <stop offset="0%"/>
      <stop stop-opacity="0" offset="100%"/>
    </linearGradient>
    <linearGradient x1="49.9978109%" y1="60.9313207%" x2="53.2891166%" y2="-1.6802661%" id="o">
      <stop stop-color="#003B36" offset="0%"/>
      <stop stop-color="#003B36" stop-opacity="0" offset="100%"/>
    </linearGradient>
    <linearGradient x1="75.0137773%" y1="88.2538651%" x2="-9.4672598%" y2="-10.331959%" id="p">
      <stop stop-color="#7D1230" offset="0%"/>
      <stop stop-color="#7D1230" stop-opacity="0" offset="100%"/>
    </linearGradient>
    <linearGradient x1="168.379831%" y1="163.367722%" x2="32.8880962%" y2="33.4952532%" id="q">
      <stop offset="0%"/>
      <stop stop-opacity="0" offset="100%"/>
    </linearGradient>
    <linearGradient x1="193.461717%" y1="123.44796%" x2="-13.4821346%" y2="17.8991826%" id="r">
      <stop offset="0%"/>
      <stop stop-opacity="0" offset="100%"/>
    </linearGradient>
    <linearGradient x1="47.7862758%" y1="9.3661983%" x2="51.8089962%" y2="98.5170661%" id="s">
      <stop stop-color="#003B36" offset="0%"/>
      <stop stop-color="#003B36" stop-opacity="0" offset="100%"/>
    </linearGradient>
    <linearGradient x1="30.7570423%" y1="111.431379%" x2="57.2691315%" y2="26.6941358%" id="t">
      <stop stop-color="#7D1230" offset="0%"/>
      <stop stop-color="#7D1230" stop-opacity="0" offset="100%"/>
    </linearGradient>
    <linearGradient x1="115.939251%" y1="136.273361%" x2="57.163951%" y2="62.4462616%" id="u">
      <stop stop-color="#7D1230" offset="0%"/>
      <stop stop-color="#7D1230" stop-opacity="0" offset="100%"/>
    </linearGradient>
    <linearGradient x1="152.666435%" y1="12.3030376%" x2="-2.3013117%" y2="87.9414479%" id="v">
      <stop stop-color="#7D1230" offset="0%"/>
      <stop stop-color="#7D1230" stop-opacity="0" offset="100%"/>
    </linearGradient>
    <linearGradient x1="5.6843404%" y1="39.8390196%" x2="112.727234%" y2="64.5007843%" id="w">
      <stop stop-color="#003B36" offset="0%"/>
      <stop stop-color="#003B36" stop-opacity="0" offset="100%"/>
    </linearGradient>
    <linearGradient x1="11.0557645%" y1="118.14908%" x2="71.9199509%" y2="13.5733619%" id="x">
      <stop stop-color="#003B36" offset="0%"/>
      <stop stop-color="#003B36" stop-opacity="0" offset="100%"/>
    </linearGradient>
  </defs>
  <g fill="none" fill-rule="evenodd">
    <g fill-rule="nonzero">
      <path d="M612.193876 411.776577c-2.674397 6.757732-5.835049 13.272672-9.481954 19.504354-1.175114 2.023273-2.390749 3.965616-3.687427 5.948423-18.639739 28.528154-47.571857 51.269745-82.663192 67.901051-45.059544 21.365766-100.289902 32.736562-156.816938 33.545871-59.363518.80931-120.226319-10.075901-172.336547-33.303078-2.674398-1.213964-5.389316-2.427928-8.104235-3.763288-.526775-.242793-1.094072-.526051-1.620847-.768844-.486254-.242793-1.013029-.485586-1.499283-.728378-4.457329-2.185135-8.955179-4.491667-13.534072-6.96006-.526775-.283259-1.094072-.606982-1.620847-.890241-.607817-.323723-1.175114-.647447-1.74241-.971171-.567297-.323724-1.134593-.606982-1.661368-.930705-.567297-.323724-1.134593-.647448-1.70189-.971172-4.011596-2.266066-8.023192-4.613063-12.034788-7.081456-.445733-.283258-.931987-.566517-1.37772-.849775-4.781498-2.953979-9.522475-5.988889-14.303974-9.226126-1.215635-.809309-2.43127-1.659084-3.687426-2.508859-.607818-.44512-1.256157-.849775-1.863974-1.294895-3.120131-2.185135-6.240261-4.410736-9.31987-6.676802-.607818-.44512-1.256156-.930705-1.863974-1.375825l-.405212-.283259c-1.094071-.849774-2.188143-1.659084-3.322736-2.508859l-.040521-.040465c-1.823453-1.375826-3.646906-2.792117-5.470358-4.248874-.607818-.485585-1.256157-.971171-1.863974-1.497222-.6078178-.485586-1.2156354-.971171-1.823453-1.456757-1.2156352-.971171-2.4312704-1.982808-3.6063844-2.953979-1.7829316-1.497222-3.5658632-2.994444-5.3487948-4.532132-2.5528338-2.185135-5.1056677-4.451201-7.6179804-6.717267-.9725082-.89024-1.9450163-1.780481-2.9175244-2.670721-2.8770033-2.670721-5.7134854-5.381907-8.5094463-8.133558-30.1072313-29.863514-54.5009772-65.108934-64.7528339-103.42973-4.214202-15.821997-6.0376547-32.210511-4.8625407-48.922748.3241694-4.613063.8914658-9.145195 1.620847-13.555931 5.4703582-31.927252 21.9219543-59.565165 46.5993484-87.000751 27.4328339-30.470495 64.9959605-60.576801 109.0019545-95.8626873 58.06684-46.5757508 97.45342-77.2081081 152.03544-76.3987988 40.075439.606982 73.140716 17.9666666 102.072834 40.7891892 18.801824 14.8508258 35.820716 32.0081831 51.907622 48.3966966 11.021759 11.2089343 26.419804 26.9500003 43.357654 45.9283033 13.979805 15.660135 28.972639 33.545871 43.357655 52.969294 7.780065 10.480556 15.357525 21.446697 22.529772 32.696096 37.846775 59.605631 63.496678 128.558784 38.981368 190.835136z" fill="#F8FAFD"/>
      <path d="M599.024495 437.188889c-18.639739 28.528153-47.571857 51.269745-82.663192 67.901051-45.059544 21.365766-100.289902 32.736562-156.816938 33.545871-63.982932-1.497222-125.615635-12.463364-172.336547-33.303078-2.674398-1.213964-5.389316-2.427928-8.104235-3.763289-.526775-.242792-1.094072-.526051-1.620847-.768843-.486254-.242793-1.013029-.485586-1.499283-.728379-4.457329-2.185135-8.955179-4.491666-13.534072-6.96006-.526775-.283258-1.094072-.606982-1.620847-.89024-.607817-.323724-1.175114-.647448-1.74241-.971171-.567297-.323724-1.134593-.606982-1.661368-.930706-.567297-.323724-1.134593-.647447-1.70189-.971171-4.011596-2.266066-8.023192-4.613063-12.034788-7.081457-.445733-.283258-.931987-.566516-1.37772-.849774-4.781498-2.953979-9.522475-5.988889-14.303974-9.226126-1.215635-.80931-2.43127-1.659085-3.687426-2.508859-.607818-.44512-1.256157-.849775-1.863974-1.294895-3.120131-2.185135-6.240261-4.410736-9.31987-6.676802-.607818-.44512-1.256156-.930706-1.863974-1.375826l-.405212-.283258c-1.094071-.809309-2.228664-1.659084-3.322736-2.508859l-.040521-.040465c-1.823453-1.375826-3.646906-2.792118-5.470358-4.248874-.607818-.485586-1.256157-.971171-1.863974-1.497223-.6078178-.485585-1.2156354-.971171-1.823453-1.456756-1.2156352-.971171-2.4312704-1.982808-3.6063844-2.953979-1.7829316-1.497223-3.5658632-2.994445-5.3487948-4.532132-2.5528338-2.185136-5.1056677-4.451202-7.6179804-6.717268l-2.9175244-2.67072c-2.8770033-2.670721-5.7134854-5.381907-8.5094463-8.133559 82.1364173 20.232733 122.2118563 24.076952 205.6044303 23.429505 77.800651-.606982 133.517264-4.046547 256.499022-6.87913 15.114398-.323723 40.723779-2.427928 66.576287-4.653528z" fill="#E1EBF8"/>
      <path d="M612.193876 411.776577c-2.674397 6.757732-5.835049 13.272672-9.481954 19.504354-1.175114 2.023273-2.390749 3.965616-3.687427 5.948423-18.639739 28.528154-47.571857 51.269745-82.663192 67.901051-122.292899 9.711712-270.843518-10.480555-388.39544-32.857958-1.215635-.809309-2.43127-1.659084-3.687427-2.508858-.607817-.445121-1.256156-.849775-1.863973-1.294895-3.120131-2.185135-6.240261-4.410736-9.31987-6.676802-.607818-.44512-1.256157-.930706-1.863974-1.375826l-.405212-.283258c-1.094071-.849775-2.188143-1.659084-3.322736-2.508859l-.040521-.040466c-1.823453-1.375825-3.646906-2.792117-5.470358-4.248873-.607818-.485586-1.256157-.971172-1.863974-1.497223-.607818-.485585-1.2156356-.971171-1.8234532-1.456756-1.2156352-.971172-2.4312703-1.982808-3.6063843-2.953979-1.7829316-1.497223-3.5658632-2.994445-5.3487948-4.532132-2.5528339-2.185136-5.1056678-4.451202-7.6179805-6.717268l-2.9175244-2.67072c-2.8770033-2.670721-5.7134854-5.381907-8.5094463-8.133559-30.1072312-29.863514-54.5009772-65.108934-64.7528339-103.42973 33.308404-33.586336 66.414202-54.749775 95.6704884-68.588964 133.112052-63.045195 211.925733 12.261036 384.140717-40.060811 25.609381-7.769369 46.964039-16.469444 65.279609-25.007657 7.780065 10.480555 15.357524 21.446697 22.529772 32.696096 37.887296 59.565165 63.537199 128.518318 39.021889 190.79467z"/>
      <g opacity=".56">
        <path d="M5.5514006 76.0346096c5.2272313 2.9944445 14.060847 2.3874625 21.7193486-2.6707207 7.6179804-5.0581832 8.6310098-1.3353604 9.7656026.5665165 0 0 11.3864495 17.2787538 20.8278827 12.7870871 12.5210424-5.9484234 15.2764821-21.8108859 15.6816938-24.076952.7699023-4.3702702-2.1881433-4.9367867-2.1881433-4.9367867s-11.7916612 10.0354354-20.5037133 9.5093843c-2.4717916-.1618618-2.0665798-2.6707207-.4457329-3.1967717 1.6208469-.4855856 10.6165472-1.213964 14.2229316-4.4512012 3.6063843-3.2777027 8.3878827-11.128003 8.5904886-13.6773274.486254-6.0698198-3.6469056-10.6019519-3.6469056-10.6019519s-7.2938111 5.6651652-10.5355049 9.1047297c-3.2822149 3.4395646-8.6310097 6.3935436-9.4819544 5.2605105-.6888599-.9307057.6078176-2.0637387 3.4442997-4.2488738 1.5803257-1.213964 15.9248209-10.6424175 15.6411726-14.9722223-.243127-4.1679429-7.3748534-11.5326576-8.3473615-11.9373123-.9725082-.4046546-10.2923779 16.7527027-12.0753095 14.2438439-1.7829316-2.4683934 8.1852769-13.0703454 9.1577851-14.8103604 1.7424104-3.0349099-.4457329-8.093093-1.3777199-9.5498499-1.9044951-2.953979-6.4833876-7.040991-7.1317264-7.8907657-.6483388-.8497748-9.6440391 4.167943-10.9001954 6.3935435-1.2561564 2.2256006-1.0130294 7.5670421-.2836482 8.5786787.7293811 1.0116366 2.2286644 8.4168168.0405211 6.6768018-2.1476221-1.7804805-4.1736808-13.7582583-4.1736808-14.4057057-.0405211-.6474474-7.2532899 5.0177177-9.2793485 6.7172673-1.6208469 1.3353603-3.9710749 5.9484234.1215635 10.5614865 5.389316 6.0698198 8.9551792 9.7521771 8.4284039 13.4345345-.6888599 4.8963213-9.8061237-8.8214715-10.4544625-11.0066066-.6888599-2.1851351-2.4312704-4.0060811-3.282215-6.6768018C18.2345277 18.0475976 0 39.6561562 7.3748534 43.4194444c7.3343323 3.7632883 12.6020847 2.1851352 14.0608469 5.1391142 1.4587622 2.9539789-.7699023 4.613063-3.4442996 2.266066-3.1201303-2.7516516-8.8336157-5.1391141-12.1563518-6.4744744-2.9175245-1.213964-7.050684 14.1629129-4.9435831 17.0764264 2.107101 2.9135135 13.615114.1618618 16.4921173.9711711 2.8770032.8093094 4.4978501 4.8963214 1.4992833 4.0870121-2.9985667-.8093093-11.1838436-4.1274775-17.383583-1.3758259-.0810424.0404655-1.2156352 7.9716967 4.0521173 10.9256757zm46.0320522-42.5696697c2.8770032-1.0116366.7293811 3.5204955-1.3371987 4.1274775-1.4182411.4046547-2.1881434-.2023273-1.4992834-1.5781531.3241694-.5260511 2.3097068-2.3065316 2.8364821-2.5493244zm-10.4139414-1.659084c.2026059-1.0116367 1.1345928-1.3758259 1.7829316-.4855856.243127.3641892.7293811 2.0637387.7293811 2.4683934-.3241694 2.0637387-2.7959609-.5260511-2.5123127-1.9828078zm13.6961564 21.4466967c-.1620847 2.266066-6.8480782 2.9944444-5.5108795.9307057.8104234-.9307057 5.7945277-4.4916667 5.5108795-.9307057zM33.3489251 41.8412913c1.3371987-.4046547 3.8089902 2.1446697 4.6599348 3.0753754.6483388.526051 1.2966776 1.3353603 1.7018893 1.9423423.5672964.8093093.9725081 1.4972222.243127 1.6995496-1.6613681.1618618-4.5788925-1.4972223-6.0781759-2.3065316-1.2561563-.7283784-2.7149185-3.6823573-.5267752-4.4107357zm-6.0781759 10.8852102c1.5398045-.0809309 4.1331596 1.5376877 5.2272313 2.346997 1.7829316 1.2544294 6.118697 4.4512012 1.5803257 3.2777027h-.0405212c-2.0665798-.4855856-4.700456-.7688438-6.56443-1.9828078-1.7018892-.8497748-3.0796091-3.3586336-.2026058-3.6418919z" fill="url(#a)" transform="translate(509.756352 336.268018)"/>
        <path d="M5.5514006 76.0346096c5.2272313 2.9944445 14.060847 2.3874625 21.7193486-2.6707207 7.6179804-5.0581832 8.6310098-1.3353604 9.7656026.5665165 0 0 11.3864495 17.2787538 20.8278827 12.7870871 12.5210424-5.9484234 15.2764821-21.8108859 15.6816938-24.076952.7699023-4.3702702-2.1881433-4.9367867-2.1881433-4.9367867s-11.7916612 10.0354354-20.5037133 9.5093843c-2.4717916-.1618618-2.0665798-2.6707207-.4457329-3.1967717 1.6208469-.4855856 10.6165472-1.213964 14.2229316-4.4512012 3.6063843-3.2777027 8.3878827-11.128003 8.5904886-13.6773274.486254-6.0698198-3.6469056-10.6019519-3.6469056-10.6019519s-7.2938111 5.6651652-10.5355049 9.1047297c-3.2822149 3.4395646-8.6310097 6.3935436-9.4819544 5.2605105-.6888599-.9307057.6078176-2.0637387 3.4442997-4.2488738 1.5803257-1.213964 15.9248209-10.6424175 15.6411726-14.9722223-.243127-4.1679429-7.3748534-11.5326576-8.3473615-11.9373123-.9725082-.4046546-10.2923779 16.7527027-12.0753095 14.2438439-1.7829316-2.4683934 8.1852769-13.0703454 9.1577851-14.8103604 1.7424104-3.0349099-.4457329-8.093093-1.3777199-9.5498499-1.9044951-2.953979-6.4833876-7.040991-7.1317264-7.8907657-.6483388-.8497748-9.6440391 4.167943-10.9001954 6.3935435-1.2561564 2.2256006-1.0130294 7.5670421-.2836482 8.5786787.7293811 1.0116366 2.2286644 8.4168168.0405211 6.6768018-2.1476221-1.7804805-4.1736808-13.7582583-4.1736808-14.4057057-.0405211-.6474474-7.2532899 5.0177177-9.2793485 6.7172673-1.6208469 1.3353603-3.9710749 5.9484234.1215635 10.5614865 5.389316 6.0698198 8.9551792 9.7521771 8.4284039 13.4345345-.6888599 4.8963213-9.8061237-8.8214715-10.4544625-11.0066066-.6888599-2.1851351-2.4312704-4.0060811-3.282215-6.6768018C18.2345277 18.0475976 0 39.6561562 7.3748534 43.4194444c7.3343323 3.7632883 12.6020847 2.1851352 14.0608469 5.1391142 1.4587622 2.9539789-.7699023 4.613063-3.4442996 2.266066-3.1201303-2.7516516-8.8336157-5.1391141-12.1563518-6.4744744-2.9175245-1.213964-7.050684 14.1629129-4.9435831 17.0764264 2.107101 2.9135135 13.615114.1618618 16.4921173.9711711 2.8770032.8093094 4.4978501 4.8963214 1.4992833 4.0870121-2.9985667-.8093093-11.1838436-4.1274775-17.383583-1.3758259-.0810424.0404655-1.2156352 7.9716967 4.0521173 10.9256757zm46.0320522-42.5696697c2.8770032-1.0116366.7293811 3.5204955-1.3371987 4.1274775-1.4182411.4046547-2.1881434-.2023273-1.4992834-1.5781531.3241694-.5260511 2.3097068-2.3065316 2.8364821-2.5493244zm-10.4139414-1.659084c.2026059-1.0116367 1.1345928-1.3758259 1.7829316-.4855856.243127.3641892.7293811 2.0637387.7293811 2.4683934-.3241694 2.0637387-2.7959609-.5260511-2.5123127-1.9828078zm13.6961564 21.4466967c-.1620847 2.266066-6.8480782 2.9944444-5.5108795.9307057.8104234-.9307057 5.7945277-4.4916667 5.5108795-.9307057zM33.3489251 41.8412913c1.3371987-.4046547 3.8089902 2.1446697 4.6599348 3.0753754.6483388.526051 1.2966776 1.3353603 1.7018893 1.9423423.5672964.8093093.9725081 1.4972222.243127 1.6995496-1.6613681.1618618-4.5788925-1.4972223-6.0781759-2.3065316-1.2561563-.7283784-2.7149185-3.6823573-.5267752-4.4107357zm-6.0781759 10.8852102c1.5398045-.0809309 4.1331596 1.5376877 5.2272313 2.346997 1.7829316 1.2544294 6.118697 4.4512012 1.5803257 3.2777027h-.0405212c-2.0665798-.4855856-4.700456-.7688438-6.56443-1.9828078-1.7018892-.8497748-3.0796091-3.3586336-.2026058-3.6418919z" fill="url(#b)" transform="translate(509.756352 336.268018)"/>
      </g>
      <g transform="translate(81.852769 348.003003)" fill="url(#b)">
        <path d="M17.5861889 21.0825075c1.2561564 1.9828078 13.4125082 13.9605856 11.4269707 16.95503-1.9855375 2.9944445-13.7366775-16.7122372-14.8307492-16.1861861-1.0940716.526051-9.157785 9.5093843-9.2388273 14.4057057-.1215636 5.0986486 17.140456 15.4982732 19.0449511 16.8336336 3.4442997 2.4279279 4.9841042 3.7228228 4.2547231 4.8153904-.9319869 1.3758258-7.3748534-1.820946-11.3459283-5.7460961-3.9710749-3.8846847-12.8046906-10.1972973-12.8046906-10.1972973S-.5672964 47.465991.2836482 54.5879129c.3646906 2.9944445 6.321303 12.0182433 10.6975896 15.6601351 4.4168078 3.6418919 14.9928339 4.0870121 16.897329 4.6130631 1.9450163.5260511 2.5123127 3.48003-.3646906 3.7632883C17.3025407 79.636036 3.039088 68.3866366 3.039088 68.3866366s-3.484821.7688439-2.350228 5.8674925c.5672963 2.6302553 4.5383713 21.122973 19.490684 27.5165169 11.264886 4.855856 23.8669707-15.9433937 23.8669707-15.9433937 1.2156351-2.2660661 2.2286645-6.6768018 11.4269706-1.0925676 9.1983062 5.5437688 19.6122476 5.8674925 25.6093811 2.1446697C87.08 83.1160661 85.4186319 73.8899399 85.4186319 73.8899399c-7.4153746-2.9539789-16.8568078 1.3353604-20.3416286 2.3874625-3.4848209 1.0925676-1.7424105-3.8037538 1.5803257-4.8558559 3.3227361-1.0925675 16.9783713 1.6186187 19.3285993-1.8614114 2.3097069-3.5204955-3.2011726-21.3657657-6.6049511-19.828078-3.8495114 1.740015-10.4544625 4.7749249-13.9798046 8.174024-3.0390879 2.873048-5.7134853 1.0116366-4.1736807-2.5088589 1.5803257-3.5204955 7.8205863-1.9018769 16.2895114-6.6768018 8.468925-4.7749249-13.9392834-29.2565315-14.7902281-26.0597597-.8509446 3.1967717-2.836482 5.4223723-3.525342 8.0121621-.6888599 2.5493243-10.7381107 19.0592343-11.7916612 13.3940691-.7699023-4.2893393 3.2011726-8.7405405 9.2793485-16.1457207 4.6194137-5.6246997 1.6208469-10.9256757-.3241694-12.4228979-2.4717915-1.9018769-11.2243648-8.2144895-11.2243648-7.4861111 0 .7688438-1.8234527 14.9317567-4.2547231 17.1168919-2.4312704 2.1851351-1.0535505-6.5958709-.243127-7.8098349.8104234-1.2139639.8509446-7.5265766-.7293812-10.0759009C38.3330293 4.693994 27.5138762-.8497747 26.8250163.2023273c-.6888599 1.0521021-5.87557 6.0698199-7.982671 9.5903153-1.0940717 1.7400151-3.4037785 7.8098349-1.2561564 11.2898649zm30.9176547 42.3673423c1.2156352-.9711711 4.1736808-3.0349099 6.0376548-2.9944444 3.4037785.2023273 1.8639739 3.2372372-.0405212 4.2893393-2.1476222 1.4567568-5.2677524 1.9423424-7.6179805 2.5897898h-.0405211c-5.3082736 1.6186187-.3646906-2.3065315 1.661368-3.8846847zm-8.8336156-9.307057c.4457329-.7283784 1.175114-1.6995496 1.9044951-2.346997.931987-1.133033 3.7684691-4.2488739 5.3082736-3.8442192 2.5933551.7283784 1.0130294 4.2488739-.4052117 5.1795796-1.7018892 1.0116366-5.1056677 3.0753753-7.0101629 2.9944444h-.0405211c-.8509446-.1618619-.4052117-1.0116366.243127-1.9828078zm-17.5051466 8.2144895c-.486254-4.167943 5.5108795-.2427928 6.5239088.8497748 1.6613681 2.346997-6.2402606 1.8209459-6.5239088-.8497748zm15.0738763-25.816967c.4052117 1.6995496-2.3907492 4.8963213-2.8364821 2.4279279-.0405212-.4451201.4457329-2.4683934.7293811-2.9135135.7293811-1.0925675 1.8639739-.6879129 2.107101.4855856zm-8.671531 5.300976c.8914658 1.5781531 0 2.346997-1.7018892 1.9018769-2.4717916-.606982-5.1867101-5.8270271-1.7424105-4.774925.6078176.2832583 3.039088 2.2256006 3.4442997 2.8730481z"/>
        <path d="M17.5861889 21.0825075c1.2561564 1.9828078 13.4125082 13.9605856 11.4269707 16.95503-1.9855375 2.9944445-13.7366775-16.7122372-14.8307492-16.1861861-1.0940716.526051-9.157785 9.5093843-9.2388273 14.4057057-.1215636 5.0986486 17.140456 15.4982732 19.0449511 16.8336336 3.4442997 2.4279279 4.9841042 3.7228228 4.2547231 4.8153904-.9319869 1.3758258-7.3748534-1.820946-11.3459283-5.7460961-3.9710749-3.8846847-12.8046906-10.1972973-12.8046906-10.1972973S-.5672964 47.465991.2836482 54.5879129c.3646906 2.9944445 6.321303 12.0182433 10.6975896 15.6601351 4.4168078 3.6418919 14.9928339 4.0870121 16.897329 4.6130631 1.9450163.5260511 2.5123127 3.48003-.3646906 3.7632883C17.3025407 79.636036 3.039088 68.3866366 3.039088 68.3866366s-3.484821.7688439-2.350228 5.8674925c.5672963 2.6302553 4.5383713 21.122973 19.490684 27.5165169 11.264886 4.855856 23.8669707-15.9433937 23.8669707-15.9433937 1.2156351-2.2660661 2.2286645-6.6768018 11.4269706-1.0925676 9.1983062 5.5437688 19.6122476 5.8674925 25.6093811 2.1446697C87.08 83.1160661 85.4186319 73.8899399 85.4186319 73.8899399c-7.4153746-2.9539789-16.8568078 1.3353604-20.3416286 2.3874625-3.4848209 1.0925676-1.7424105-3.8037538 1.5803257-4.8558559 3.3227361-1.0925675 16.9783713 1.6186187 19.3285993-1.8614114 2.3097069-3.5204955-3.2011726-21.3657657-6.6049511-19.828078-3.8495114 1.740015-10.4544625 4.7749249-13.9798046 8.174024-3.0390879 2.873048-5.7134853 1.0116366-4.1736807-2.5088589 1.5803257-3.5204955 7.8205863-1.9018769 16.2895114-6.6768018 8.468925-4.7749249-13.9392834-29.2565315-14.7902281-26.0597597-.8509446 3.1967717-2.836482 5.4223723-3.525342 8.0121621-.6888599 2.5493243-10.7381107 19.0592343-11.7916612 13.3940691-.7699023-4.2893393 3.2011726-8.7405405 9.2793485-16.1457207 4.6194137-5.6246997 1.6208469-10.9256757-.3241694-12.4228979-2.4717915-1.9018769-11.2243648-8.2144895-11.2243648-7.4861111 0 .7688438-1.8234527 14.9317567-4.2547231 17.1168919-2.4312704 2.1851351-1.0535505-6.5958709-.243127-7.8098349.8104234-1.2139639.8509446-7.5265766-.7293812-10.0759009C38.3330293 4.693994 27.5138762-.8497747 26.8250163.2023273c-.6888599 1.0521021-5.87557 6.0698199-7.982671 9.5903153-1.0940717 1.7400151-3.4037785 7.8098349-1.2561564 11.2898649zm30.9176547 42.3673423c1.2156352-.9711711 4.1736808-3.0349099 6.0376548-2.9944444 3.4037785.2023273 1.8639739 3.2372372-.0405212 4.2893393-2.1476222 1.4567568-5.2677524 1.9423424-7.6179805 2.5897898h-.0405211c-5.3082736 1.6186187-.3646906-2.3065315 1.661368-3.8846847zm-8.8336156-9.307057c.4457329-.7283784 1.175114-1.6995496 1.9044951-2.346997.931987-1.133033 3.7684691-4.2488739 5.3082736-3.8442192 2.5933551.7283784 1.0130294 4.2488739-.4052117 5.1795796-1.7018892 1.0116366-5.1056677 3.0753753-7.0101629 2.9944444h-.0405211c-.8509446-.1618619-.4052117-1.0116366.243127-1.9828078zm-17.5051466 8.2144895c-.486254-4.167943 5.5108795-.2427928 6.5239088.8497748 1.6613681 2.346997-6.2402606 1.8209459-6.5239088-.8497748zm15.0738763-25.816967c.4052117 1.6995496-2.3907492 4.8963213-2.8364821 2.4279279-.0405212-.4451201.4457329-2.4683934.7293811-2.9135135.7293811-1.0925675 1.8639739-.6879129 2.107101.4855856zm-8.671531 5.300976c.8914658 1.5781531 0 2.346997-1.7018892 1.9018769-2.4717916-.606982-5.1867101-5.8270271-1.7424105-4.774925.6078176.2832583 3.039088 2.2256006 3.4442997 2.8730481z" opacity=".56"/>
      </g>
      <g opacity=".56">
        <path d="M5.5514006 76.0346096c5.2272313 2.9944445 14.060847 2.3874625 21.7193486-2.6707207 7.6179804-5.0581832 8.6310098-1.3353604 9.7656026.5665165 0 0 11.3864495 17.2787538 20.8278827 12.7870871 12.5210424-5.9484234 15.2764821-21.8108859 15.6816938-24.076952.7699023-4.3702702-2.1881433-4.9367867-2.1881433-4.9367867s-11.7916612 10.0354354-20.5037133 9.5093843c-2.4717916-.1618618-2.0665798-2.6707207-.4457329-3.1967717 1.6208469-.4855856 10.6165472-1.213964 14.2229316-4.4512012 3.6063843-3.2777027 8.3878827-11.128003 8.5904886-13.6773274.486254-6.0698198-3.6469056-10.6019519-3.6469056-10.6019519s-7.2938111 5.6651652-10.5355049 9.1047297c-3.2822149 3.4395646-8.6310097 6.3935436-9.4819544 5.2605105-.6888599-.9307057.6078176-2.0637387 3.4442997-4.2488738 1.5803257-1.213964 15.9248209-10.6424175 15.6411726-14.9722223-.243127-4.1679429-7.3748534-11.5326576-8.3473615-11.9373123-.9725082-.4046546-10.2923779 16.7527027-12.0753095 14.2438439-1.7829316-2.4683934 8.1852769-13.0703454 9.1577851-14.8103604 1.7424104-3.0349099-.4457329-8.093093-1.3777199-9.5498499-1.9044951-2.953979-6.4833876-7.040991-7.1317264-7.8907657-.6483388-.8497748-9.6440391 4.167943-10.9001954 6.3935435-1.2561564 2.2256006-1.0130294 7.5670421-.2836482 8.5786787.7293811 1.0116366 2.2286644 8.4168168.0405211 6.6768018-2.1476221-1.7804805-4.1736808-13.7582583-4.1736808-14.4057057-.0405211-.6474474-7.2532899 5.0177177-9.2793485 6.7172673-1.6208469 1.3353603-3.9710749 5.9484234.1215635 10.5614865 5.389316 6.0698198 8.9551792 9.7521771 8.4284039 13.4345345-.6888599 4.8963213-9.8061237-8.8214715-10.4544625-11.0066066-.6888599-2.1851351-2.4312704-4.0060811-3.282215-6.6768018C18.2345277 18.0475976 0 39.6561562 7.3748534 43.4194444c7.3343323 3.7632883 12.6020847 2.1851352 14.0608469 5.1391142 1.4587622 2.9539789-.7699023 4.613063-3.4442996 2.266066-3.1201303-2.7516516-8.8336157-5.1391141-12.1563518-6.4744744-2.9175245-1.213964-7.050684 14.1629129-4.9435831 17.0764264 2.107101 2.9135135 13.615114.1618618 16.4921173.9711711 2.8770032.8093094 4.4978501 4.8963214 1.4992833 4.0870121-2.9985667-.8093093-11.1838436-4.1274775-17.383583-1.3758259-.0810424.0404655-1.2156352 7.9716967 4.0521173 10.9256757zm46.0320522-42.5696697c2.8770032-1.0116366.7293811 3.5204955-1.3371987 4.1274775-1.4182411.4046547-2.1881434-.2023273-1.4992834-1.5781531.3241694-.5260511 2.3097068-2.3065316 2.8364821-2.5493244zm-10.4139414-1.659084c.2026059-1.0116367 1.1345928-1.3758259 1.7829316-.4855856.243127.3641892.7293811 2.0637387.7293811 2.4683934-.3241694 2.0637387-2.7959609-.5260511-2.5123127-1.9828078zm13.6961564 21.4466967c-.1620847 2.266066-6.8480782 2.9944444-5.5108795.9307057.8104234-.9307057 5.7945277-4.4916667 5.5108795-.9307057zM33.3489251 41.8412913c1.3371987-.4046547 3.8089902 2.1446697 4.6599348 3.0753754.6483388.526051 1.2966776 1.3353603 1.7018893 1.9423423.5672964.8093093.9725081 1.4972222.243127 1.6995496-1.6613681.1618618-4.5788925-1.4972223-6.0781759-2.3065316-1.2561563-.7283784-2.7149185-3.6823573-.5267752-4.4107357zm-6.0781759 10.8852102c1.5398045-.0809309 4.1331596 1.5376877 5.2272313 2.346997 1.7829316 1.2544294 6.118697 4.4512012 1.5803257 3.2777027h-.0405212c-2.0665798-.4855856-4.700456-.7688438-6.56443-1.9828078-1.7018892-.8497748-3.0796091-3.3586336-.2026058-3.6418919z" fill="url(#a)" transform="translate(296.614984 320.486486)"/>
        <path d="M5.5514006 76.0346096c5.2272313 2.9944445 14.060847 2.3874625 21.7193486-2.6707207 7.6179804-5.0581832 8.6310098-1.3353604 9.7656026.5665165 0 0 11.3864495 17.2787538 20.8278827 12.7870871 12.5210424-5.9484234 15.2764821-21.8108859 15.6816938-24.076952.7699023-4.3702702-2.1881433-4.9367867-2.1881433-4.9367867s-11.7916612 10.0354354-20.5037133 9.5093843c-2.4717916-.1618618-2.0665798-2.6707207-.4457329-3.1967717 1.6208469-.4855856 10.6165472-1.213964 14.2229316-4.4512012 3.6063843-3.2777027 8.3878827-11.128003 8.5904886-13.6773274.486254-6.0698198-3.6469056-10.6019519-3.6469056-10.6019519s-7.2938111 5.6651652-10.5355049 9.1047297c-3.2822149 3.4395646-8.6310097 6.3935436-9.4819544 5.2605105-.6888599-.9307057.6078176-2.0637387 3.4442997-4.2488738 1.5803257-1.213964 15.9248209-10.6424175 15.6411726-14.9722223-.243127-4.1679429-7.3748534-11.5326576-8.3473615-11.9373123-.9725082-.4046546-10.2923779 16.7527027-12.0753095 14.2438439-1.7829316-2.4683934 8.1852769-13.0703454 9.1577851-14.8103604 1.7424104-3.0349099-.4457329-8.093093-1.3777199-9.5498499-1.9044951-2.953979-6.4833876-7.040991-7.1317264-7.8907657-.6483388-.8497748-9.6440391 4.167943-10.9001954 6.3935435-1.2561564 2.2256006-1.0130294 7.5670421-.2836482 8.5786787.7293811 1.0116366 2.2286644 8.4168168.0405211 6.6768018-2.1476221-1.7804805-4.1736808-13.7582583-4.1736808-14.4057057-.0405211-.6474474-7.2532899 5.0177177-9.2793485 6.7172673-1.6208469 1.3353603-3.9710749 5.9484234.1215635 10.5614865 5.389316 6.0698198 8.9551792 9.7521771 8.4284039 13.4345345-.6888599 4.8963213-9.8061237-8.8214715-10.4544625-11.0066066-.6888599-2.1851351-2.4312704-4.0060811-3.282215-6.6768018C18.2345277 18.0475976 0 39.6561562 7.3748534 43.4194444c7.3343323 3.7632883 12.6020847 2.1851352 14.0608469 5.1391142 1.4587622 2.9539789-.7699023 4.613063-3.4442996 2.266066-3.1201303-2.7516516-8.8336157-5.1391141-12.1563518-6.4744744-2.9175245-1.213964-7.050684 14.1629129-4.9435831 17.0764264 2.107101 2.9135135 13.615114.1618618 16.4921173.9711711 2.8770032.8093094 4.4978501 4.8963214 1.4992833 4.0870121-2.9985667-.8093093-11.1838436-4.1274775-17.383583-1.3758259-.0810424.0404655-1.2156352 7.9716967 4.0521173 10.9256757zm46.0320522-42.5696697c2.8770032-1.0116366.7293811 3.5204955-1.3371987 4.1274775-1.4182411.4046547-2.1881434-.2023273-1.4992834-1.5781531.3241694-.5260511 2.3097068-2.3065316 2.8364821-2.5493244zm-10.4139414-1.659084c.2026059-1.0116367 1.1345928-1.3758259 1.7829316-.4855856.243127.3641892.7293811 2.0637387.7293811 2.4683934-.3241694 2.0637387-2.7959609-.5260511-2.5123127-1.9828078zm13.6961564 21.4466967c-.1620847 2.266066-6.8480782 2.9944444-5.5108795.9307057.8104234-.9307057 5.7945277-4.4916667 5.5108795-.9307057zM33.3489251 41.8412913c1.3371987-.4046547 3.8089902 2.1446697 4.6599348 3.0753754.6483388.526051 1.2966776 1.3353603 1.7018893 1.9423423.5672964.8093093.9725081 1.4972222.243127 1.6995496-1.6613681.1618618-4.5788925-1.4972223-6.0781759-2.3065316-1.2561563-.7283784-2.7149185-3.6823573-.5267752-4.4107357zm-6.0781759 10.8852102c1.5398045-.0809309 4.1331596 1.5376877 5.2272313 2.346997 1.7829316 1.2544294 6.118697 4.4512012 1.5803257 3.2777027h-.0405212c-2.0665798-.4855856-4.700456-.7688438-6.56443-1.9828078-1.7018892-.8497748-3.0796091-3.3586336-.2026058-3.6418919z" fill="url(#b)" transform="translate(296.614984 320.486486)"/>
      </g>
      <g opacity=".56">
        <path d="M17.7077524 87.284009c6.0376548.2427928 13.615114-4.3298048 18.072443-12.3015015 4.457329-7.9716967 7.0506841-5.1391141 8.914658-3.9656156 0 0 18.0319218 10.1568318 24.3937459 1.8209459 8.3878828-11.0066066 3.5253421-26.3834834 2.8770033-28.5686186-1.2966775-4.2488739-4.2142019-3.3586336-4.2142019-3.3586336s-5.8755701 14.2843093-13.8177199 17.8452703c-2.2691857 1.0116366-3.0796091-1.4162913-1.863974-2.6302553 1.2156352-1.1734985 8.8741368-5.9484234 10.5760261-10.4805556 1.7018892-4.5725976 2.350228-13.7177927 1.3371987-16.1052552-2.350228-5.6246997-8.1042345-7.7693694-8.1042345-7.7693694s-3.8495114 8.3763514-5.1867101 12.948949c-1.2966776 4.5725976-4.7409772 9.6307808-5.9971336 9.0237988-1.0130293-.4855856-.4052117-2.1042042 1.0940717-5.3414415.8509446-1.8209459 9.2388273-16.7527027 7.0101628-20.4755255-2.1476221-3.6014264-11.8727035-6.8791291-12.926254-6.7981982-1.0535505.0809309-1.4587622 19.5852853-4.1736808 18.2094595-2.7149186-1.3758259 1.2561563-15.3768769 1.3371987-17.3596847.1620847-3.48003-4.1331596-7.0005255-5.632443-7.8503003-3.039088-1.740015-8.9957003-3.2777027-9.9682085-3.7632883-.9725081-.4855856-6.6454723 8.1335586-6.7265146 10.6828829-.1215636 2.5493243 2.5528338 7.2028528 3.6874267 7.7693693 1.1345928.5665166 5.8350488 6.4744745 3.1201303 5.907958-2.7149186-.5665165-10.0087297-10.3186937-10.3328991-10.8852102-.3241693-.5665165-4.1331596 7.8098348-5.18671 10.2377628-.8104235 1.9018768-.8104235 7.1219219 4.9841042 9.3475225 7.5774593 2.9135135 12.44 4.5725976 13.6556352 8.0526276 1.6208469 4.6535285-12.7641694-3.3586336-14.3444951-4.9772523-1.5803258-1.6186186-4.0115961-2.4279279-5.9971336-4.4512012-1.9855375-2.0232732-8.2663192 25.5337088 0 25.4932433 8.2663192 0 12.2373941-3.8442192 14.8712704-1.9018769 2.6338762 1.9423424 1.418241 4.4512012-2.0260587 3.6014264-4.0115961-1.0116366-10.1708143-.526051-13.7771987-.2023273-3.1606514.2832583.243127 15.821997 3.4442997 17.4810811 3.2011726 1.6186186 12.1563518-6.1102853 15.1143974-6.7172673 2.9175244-.606982 6.2402606 2.2660661 3.2011726 2.953979-3.0390879.6474475-11.8321824 1.4567568-16.0869055 6.7577327 0-.0404654 2.6338762 7.4861112 8.6715309 7.7693694zm21.3141369-58.9177177c2.1071009-2.2256006 2.2691856 2.7921171.7293811 4.2893393-1.0535505 1.0116367-2.0665798.8497748-2.0665798-.7283783.0405211-.6474475 1.0130293-3.1158409 1.3371987-3.560961zm-10.0087297 3.2372372c-.2836482-.9711711.3646906-1.740015 1.3371987-1.2544294.3646906.2427928 1.5803257 1.4972222 1.7424104 1.8614114.7293811 2.0232733-2.6338762.8497748-3.0796091-.606982zm22.0435179 12.8275526c.8914658 2.1042042-4.700456 5.7865615-4.457329 3.3586336.2836482-1.2544294 3.0796092-6.6768018 4.457329-3.3586336zm-24.3532247-.2832583c.9725081-.9711711 4.3762866.1618619 5.5514006.606982.8104235.1618619 1.7424104.606982 2.3907492.9307057.8914658.4855856 1.5803257.8902403 1.0130293 1.3758258-1.3777198.8902403-4.7409772.7688439-6.4428664.7283784-1.4992834-.0809309-4.1331596-2.0232733-2.5123127-3.6418919zm-.4052118 12.4228979c1.3371987-.7688438 4.4168079-.526051 5.7134854-.2832582 2.1476221.2832582 7.4558957 1.133033 2.9175244 2.1851351h-.0405212c-2.0665798.4855856-4.5383713 1.4567568-6.7670358 1.2544294-1.8639739.0404655-4.2547231-1.5376877-1.8234528-3.1563063z" fill="url(#c)" transform="translate(176.672313 352.454204)"/>
        <path d="M17.7077524 87.284009c6.0376548.2427928 13.615114-4.3298048 18.072443-12.3015015 4.457329-7.9716967 7.0506841-5.1391141 8.914658-3.9656156 0 0 18.0319218 10.1568318 24.3937459 1.8209459 8.3878828-11.0066066 3.5253421-26.3834834 2.8770033-28.5686186-1.2966775-4.2488739-4.2142019-3.3586336-4.2142019-3.3586336s-5.8755701 14.2843093-13.8177199 17.8452703c-2.2691857 1.0116366-3.0796091-1.4162913-1.863974-2.6302553 1.2156352-1.1734985 8.8741368-5.9484234 10.5760261-10.4805556 1.7018892-4.5725976 2.350228-13.7177927 1.3371987-16.1052552-2.350228-5.6246997-8.1042345-7.7693694-8.1042345-7.7693694s-3.8495114 8.3763514-5.1867101 12.948949c-1.2966776 4.5725976-4.7409772 9.6307808-5.9971336 9.0237988-1.0130293-.4855856-.4052117-2.1042042 1.0940717-5.3414415.8509446-1.8209459 9.2388273-16.7527027 7.0101628-20.4755255-2.1476221-3.6014264-11.8727035-6.8791291-12.926254-6.7981982-1.0535505.0809309-1.4587622 19.5852853-4.1736808 18.2094595-2.7149186-1.3758259 1.2561563-15.3768769 1.3371987-17.3596847.1620847-3.48003-4.1331596-7.0005255-5.632443-7.8503003-3.039088-1.740015-8.9957003-3.2777027-9.9682085-3.7632883-.9725081-.4855856-6.6454723 8.1335586-6.7265146 10.6828829-.1215636 2.5493243 2.5528338 7.2028528 3.6874267 7.7693693 1.1345928.5665166 5.8350488 6.4744745 3.1201303 5.907958-2.7149186-.5665165-10.0087297-10.3186937-10.3328991-10.8852102-.3241693-.5665165-4.1331596 7.8098348-5.18671 10.2377628-.8104235 1.9018768-.8104235 7.1219219 4.9841042 9.3475225 7.5774593 2.9135135 12.44 4.5725976 13.6556352 8.0526276 1.6208469 4.6535285-12.7641694-3.3586336-14.3444951-4.9772523-1.5803258-1.6186186-4.0115961-2.4279279-5.9971336-4.4512012-1.9855375-2.0232732-8.2663192 25.5337088 0 25.4932433 8.2663192 0 12.2373941-3.8442192 14.8712704-1.9018769 2.6338762 1.9423424 1.418241 4.4512012-2.0260587 3.6014264-4.0115961-1.0116366-10.1708143-.526051-13.7771987-.2023273-3.1606514.2832583.243127 15.821997 3.4442997 17.4810811 3.2011726 1.6186186 12.1563518-6.1102853 15.1143974-6.7172673 2.9175244-.606982 6.2402606 2.2660661 3.2011726 2.953979-3.0390879.6474475-11.8321824 1.4567568-16.0869055 6.7577327 0-.0404654 2.6338762 7.4861112 8.6715309 7.7693694zm21.3141369-58.9177177c2.1071009-2.2256006 2.2691856 2.7921171.7293811 4.2893393-1.0535505 1.0116367-2.0665798.8497748-2.0665798-.7283783.0405211-.6474475 1.0130293-3.1158409 1.3371987-3.560961zm-10.0087297 3.2372372c-.2836482-.9711711.3646906-1.740015 1.3371987-1.2544294.3646906.2427928 1.5803257 1.4972222 1.7424104 1.8614114.7293811 2.0232733-2.6338762.8497748-3.0796091-.606982zm22.0435179 12.8275526c.8914658 2.1042042-4.700456 5.7865615-4.457329 3.3586336.2836482-1.2544294 3.0796092-6.6768018 4.457329-3.3586336zm-24.3532247-.2832583c.9725081-.9711711 4.3762866.1618619 5.5514006.606982.8104235.1618619 1.7424104.606982 2.3907492.9307057.8914658.4855856 1.5803257.8902403 1.0130293 1.3758258-1.3777198.8902403-4.7409772.7688439-6.4428664.7283784-1.4992834-.0809309-4.1331596-2.0232733-2.5123127-3.6418919zm-.4052118 12.4228979c1.3371987-.7688438 4.4168079-.526051 5.7134854-.2832582 2.1476221.2832582 7.4558957 1.133033 2.9175244 2.1851351h-.0405212c-2.0665798.4855856-4.5383713 1.4567568-6.7670358 1.2544294-1.8639739.0404655-4.2547231-1.5376877-1.8234528-3.1563063z" fill="url(#b)" transform="translate(176.672313 352.454204)"/>
      </g>
      <ellipse fill="#D2E1F6" cx="323.156352" cy="464.745871" rx="172.41759" ry="20.0304054"/>
    </g>
    <g transform="translate(149 259)">
      <ellipse stroke="#E1EBF8" stroke-width="3" cx="281.66686" cy="124.182692" rx="47.3151796" ry="47.25"/>
      <ellipse stroke="#E1EBF8" stroke-width="3" cx="67.3331402" cy="124.586538" rx="47.3151796" ry="47.25"/>
      <path fill="#001916" fill-rule="nonzero" d="M239.002317 35.9423077h66.7265353v2.8269231H239.002317z"/>
      <path d="M275.39861 37.1538462h-2.830823v6.501923c0 .6461539-.444844 1.2115385-1.051449 1.3326923l-35.344843 8.3596154.647045 2.7461539 35.344844-8.3596154c1.941135-.4442308 3.275666-2.1807692 3.275666-4.1596154l-.04044-6.4211538z" fill="#001916" fill-rule="nonzero"/>
      <path fill="#02BFAE" fill-rule="nonzero" d="M163.176709 118.730769l2.830823-51.2884613-27.863384 7.0673077 2.385979 58.7596156z"/>
      <path fill="url(#d)" fill-rule="nonzero" opacity=".5" d="M163.176709 118.730769l2.830823-51.2884613-27.863384 7.0673077 2.385979 58.7596156z"/>
      <g fill-rule="nonzero">
        <path d="M141.136732 140.2153846l2.0220162-16.1942307 19.0473928-3.15s4.5293164 7.35 12.0512167 11.4288461c3.8418308 2.0596154 8.7351101 2.3423077 12.6173813 2.1 4.4484356-.2826923 8.8159907 1.3326923 11.970336 4.4826923l-5.2976825 3.1903846-21.6760139 4.4423077c.0404403-.0403846-26.3266512-2.1-30.7346466-6.3z" fill="#003B36"/>
        <path d="M199.6538815 140.5788462s-11.4446118 5.5730769-20.0584009 6.3c-8.6137892.6865384-38.4587486 2.7461538-38.4587486 2.7461538v-9.45s10.3931634.7673077 21.5142526 2.1403846c11.1210892 1.3730769 14.5180765 2.1 20.3010429.6461539 5.7829664-1.4538462 15.9334878-4.1192308 15.9334878-4.1192308l.7683662 1.7365385z" fill="#001916"/>
      </g>
      <path d="M67.3331402 59.3653846c-35.8301275 0-64.9067207 29.0365385-64.9067207 64.8173074C2.4264195 159.963462 31.5030127 189 67.3331402 189c35.8301278 0 64.9067208-29.036538 64.9067208-64.817308 0-35.7807689-29.076593-64.8173074-64.9067208-64.8173074zm0 122.7692304c-32.0691773 0-58.0318656-25.967307-58.0318656-57.951923 0-31.9846151 26.0031286-57.9519228 58.0318656-57.9519228 32.028737 0 58.0318658 25.9673077 58.0318658 57.9519228 0 31.984616-25.9626885 57.951923-58.0318658 57.951923zM281.66686 59.3653846c-35.830128 0-64.906721 29.0365385-64.906721 64.8173074 0 35.78077 29.076593 64.817308 64.906721 64.817308 35.830127 0 64.906721-29.036538 64.906721-64.817308 0-35.7807689-29.076594-64.8173074-64.906721-64.8173074zm0 122.7692304c-32.069177 0-58.031866-25.967307-58.031866-57.951923 0-31.9846151 26.003129-57.9519228 58.031866-57.9519228s58.031865 25.9673077 58.031865 57.9519228c0 31.984616-25.962688 57.951923-58.031865 57.951923z" fill="#003B36" fill-rule="nonzero"/>
      <path d="M67.3331402 59.3653846c-35.8301275 0-64.9067207 29.0365385-64.9067207 64.8173074C2.4264195 159.963462 31.5030127 189 67.3331402 189c35.8301278 0 64.9067208-29.036538 64.9067208-64.817308 0-35.7807689-29.076593-64.8173074-64.9067208-64.8173074zm0 122.7692304c-32.0691773 0-58.0318656-25.967307-58.0318656-57.951923 0-31.9846151 26.0031286-57.9519228 58.0318656-57.9519228 32.028737 0 58.0318658 25.9673077 58.0318658 57.9519228 0 31.984616-25.9626885 57.951923-58.0318658 57.951923zM281.66686 59.3653846c-35.830128 0-64.906721 29.0365385-64.906721 64.8173074 0 35.78077 29.076593 64.817308 64.906721 64.817308 35.830127 0 64.906721-29.036538 64.906721-64.817308 0-35.7807689-29.076594-64.8173074-64.906721-64.8173074zm0 122.7692304c-32.069177 0-58.031866-25.967307-58.031866-57.951923 0-31.9846151 26.003129-57.9519228 58.031866-57.9519228s58.031865 25.9673077 58.031865 57.9519228c0 31.984616-25.962688 57.951923-58.031865 57.951923z" fill="url(#e)" fill-rule="nonzero" opacity=".5"/>
      <path d="M281.66686 53.3076923c-30.087602 0-55.928969 18.2942308-66.928737 44.3826923-1.051449 2.5038464.808806 5.2903844 3.558748 5.2903844 1.536733 0 2.952144-.928846 3.558749-2.382692 9.826999-23.3019232 32.918424-39.6173078 59.81124-39.6173078 26.892816 0 49.984241 16.3557693 59.81124 39.6173078.606605 1.413461 1.981576 2.382692 3.558748 2.382692 2.749942 0 4.610197-2.786538 3.558749-5.2903844-10.999768-26.0884615-36.841136-44.3826923-66.928737-44.3826923zm-214.3337198 0c-30.0876014 0-55.9289687 18.2942308-66.928737 44.3826923-1.0514484 2.5038464.8088065 5.2903844 3.5587486 5.2903844 1.5367323 0 2.9521437-.928846 3.5587486-2.382692 9.8269988-23.3019232 32.918424-39.6173078 59.8112398-39.6173078 27.8229432 0 51.5209738 17.4461539 60.7818078 41.9999998h8.168945c-9.584356-28.8346152-36.8411352-49.6730767-68.9507528-49.6730767z" fill="#C3D7F2" fill-rule="nonzero"/>
      <path fill="#7D1230" fill-rule="nonzero" d="M138.30591 23.8269231h90.1819235v5.6538461H138.30591z"/>
      <path fill="url(#f)" fill-rule="nonzero" d="M178.341831 23.8269231h50.1460023v5.6538461H178.341831z"/>
      <path fill="#7D1230" fill-rule="nonzero" d="M122.615064 33.9230769l-7.804983 13.4884616-42.7858632 74.0653845-1.9411355 3.311539-4.0844728-2.382693-.8088065-.444231 44.84832-77.5788457 7.683661-13.2865385z"/>
      <path fill="#7D1230" fill-rule="nonzero" d="M151.732097 129.957692l-.606605 5.613462-3.235225-.323077-80.8402091-8.359615.5257243-4.846154.0808806-.767308 3.0734647.323077 79.9505215 8.238461z"/>
      <path fill="url(#g)" fill-rule="nonzero" opacity=".64" d="M150.680649 129.836538l-2.790382 5.411539-80.8402091-8.359615.5257243-4.846154 3.1543453-.444231z"/>
      <ellipse fill="#003B36" fill-rule="nonzero" cx="67.3331402" cy="124.182692" rx="5.4594438" ry="5.4519231"/>
      <path fill="#7D1230" fill-rule="nonzero" d="M236.980301 54.1557692l-67.697103 67.5634618-6.591773 6.623077-4.003592-3.998077 74.288876-74.1865387z"/>
      <path fill="url(#h)" fill-rule="nonzero" d="M236.980301 54.1557692l-67.697103 67.5634618-5.0146-2.948077 68.708111-68.6134617z"/>
      <path fill="#7D1230" fill-rule="nonzero" d="M161.478216 128.342308l-5.176362 2.301923-3.113905-6.986539-38.782271-86.8269228 5.176361-2.301923 39.146234 87.6346158z"/>
      <path fill="url(#i)" fill-rule="nonzero" d="M158.728273 122.163462l-5.540324 1.49423-38.782271-86.8269228 5.176361-2.301923z"/>
      <path fill="#7D1230" fill-rule="nonzero" d="M222.785747 21.6865385l10.959328 33.6403846 5.378563-1.7365385-10.838006-33.6zm10.959328 33.6403846l6.672654 15.3057692c6.30869 14.4576923 14.92248 27.7846154 25.598725 39.4557697l13.062225 14.296153 2.588181-.121153c2.022016-.121154 2.952143-2.503847 1.577172-3.957693l-11.28285-11.953846c-11.363731-12.0749999-20.584125-26.0480768-27.175898-41.2730768l-5.782967-13.3269231-5.257242 1.575z"/>
      <path d="M67.3331402 129.028846s71.1749708 21 90.9907298 21v-34.326923s-67.5353416 2.423077-90.9907298 3.634615v9.692308z" stroke="#003B36" stroke-width="3"/>
      <ellipse fill="#003B36" fill-rule="nonzero" cx="281.66686" cy="124.182692" rx="5.4594438" ry="5.4519231"/>
      <path fill="#003B36" fill-rule="nonzero" d="M228.285632 19.9903846L221.612978 0h-6.066049l7.238818 21.6865385z"/>
      <ellipse fill="#EBEFFB" fill-rule="nonzero" cx="158.121669" cy="133.269231" rx="17.7937428" ry="17.7692308"/>
      <path d="M94.7516802 111.057692h65.7964078c10.069641 0 18.198146 8.117308 18.198146 18.173077h-7.683662l-.808806-.807692c-5.823407-5.815385-13.70927-9.086539-21.959096-9.086539H80.8806489c2.7499421-5.088461 8.0476246-8.278846 13.8710313-8.278846z" fill="#C3D7F2" fill-rule="nonzero"/>
      <path fill="#FE9240" fill-rule="nonzero" d="M237.303824 6.0576923h71.9837775v29.8846154H237.303824z"/>
      <path d="M309.287601 18.8192308v17.1230769h-71.983777V24.6346154C248.465353 22.575 264.115759 21.525 286.357937 20.1923077c8.088065-.4846154 15.771727-.9288462 22.929664-1.3730769z" fill="url(#j)" fill-rule="nonzero" opacity=".64"/>
      <path fill="#003B36" fill-rule="nonzero" d="M268.645075 4.0384615h9.3012746v31.9038462h-9.3012746z"/>
      <path fill="url(#k)" fill-rule="nonzero" d="M114.810081 47.4115385L72.0242178 121.476923l-6.0256083.928846-.8088065-.444231 44.84832-77.5788457z"/>
    </g>
    <g transform="translate(222 84)" fill-rule="nonzero">
      <path d="M70.3404255 40.112069s-2.0212766-6.0775862.8085107-8.5086207c2.8297872-2.4310345 37.1914898-12.5603449 37.1914898-12.5603449l7.276595 1.2155173-7.276595 13.3706896-15.7659579 9.724138L75.5957447 47l-5.2553192-6.887931z" fill="#00110F"/>
      <path d="M116.829787 36.8706897c-.80851 4.8620689 0 16.6120689-4.851064 16.2068965-1.334042-.1215517-2.829787-.4051724-4.406383-.5672414-4.042553-.4862069-8.6106379-.3646551-12.9765953 4.6189655-3.112766 3.5655173-6.7106383 4.2543104-9.419149 4.1327587-2.587234-.1215518-4.4063829-1.0129311-4.4063829-1.0129311l-.1617022-1.6206896-1.7787234-15.6801724s8.6510639-.4051725 12.7744681-7.0094828c.0808511-.0810345.1212766-.2025862.1617021-.2836207 0 0-2.4255319-8.9137931 4.8510639-8.1034483 0 0 2.8297872 1.6206897 3.2340425 4.0517242.4042552 2.4310345 3.2340422 2.4310345 3.2340422 0s-1.617021-6.0775862 0-7.2931035c1.617022-1.2155172 12.531915-4.0517241 12.531915-4.0517241s2.021277 11.75 1.212766 16.612069z" fill="#FE9240"/>
      <path d="M107.57234 52.5103448c-4.042553-.4862069-8.6106379-.3241379-12.9765953 4.6189655-3.112766 3.5655173-6.7106383 4.2543104-9.419149 4.1327587l-4.6085106-2.6336207-5.3765957-3.1198276 4.4468085-17.0172414 7.2765957-6.4827586s2.2234043.6077586 4.6893617 3.9301724c1.0106383 1.4181035 2.1021277 3.2818966 3.0723404 5.7939655 3.3148937 8.5086207 12.8957443 10.7775862 12.8957443 10.7775862z" fill="url(#l)" opacity=".64"/>
      <path d="M150.787234 177.019828l-1.212766.850862c0 .72931-.485106 1.337069-1.17234 1.45862l-2.465958.567242c0 .931896-.646808 1.742241-1.576596 1.944827l-2.465957.486207c0 .688793-.525532 1.296552-1.212766 1.418104l-5.417021.810344h-.202128c-.687234 0-1.253191-.567241-1.253191-1.256034 0-.567241.363829-1.053448.929787-1.215517h.080851c1.17234-.202586 1.9-1.215517 1.9-2.268966 0-.324138-.080851-.688793-.242553-1.012931-.404256-.769827-1.172341-1.256034-2.061702-1.256034h-1.334043c-2.344681 0-4.608511-1.012931-6.144681-2.79569l-10.510638-12.19569 6.87234-9.724138 8.368085 9.724138c1.09149 1.256035 2.668086 1.944828 4.365958 1.904311 3.597872-.121552 9.742553-.202586 11.157447.931896 1.414893 1.134483 3.476595 5.915518 4.527659 8.630173.404256 1.012931.040426 2.309482-.929787 2.998276z" fill="#FE9240"/>
      <path d="M150.787234 177.019828l-1.212766.850862c0 .72931-.485106 1.337069-1.17234 1.45862l-2.465958.567242c0 .931896-.646808 1.742241-1.576596 1.944827l-2.465957.486207c0 .688793-.525532 1.296552-1.212766 1.418104l-5.417021.810344h-.202128c-.687234 0-1.253191-.567241-1.253191-1.256034 0-.567241.363829-1.053448.929787-1.215517h.080851c1.17234-.202586 1.9-1.215517 1.9-2.268966 0-.324138-.080851-.688793-.242553-1.012931-.404256-.769827-1.172341-1.256034-2.061702-1.256034h-1.334043c-2.344681 0-4.608511-1.012931-6.144681-2.79569l-10.510638-12.19569 6.87234-9.724138 8.368085 9.724138c1.09149 1.256035 2.668086 1.944828 4.365958 1.904311 3.597872-.121552 9.742553-.202586 11.157447.931896 1.414893 1.134483 3.476595 5.915518 4.527659 8.630173.404256 1.012931.040426 2.309482-.929787 2.998276z" fill="url(#m)" opacity=".64"/>
      <path d="M84.287234 298.814655l-6.0638297-1.215517-19-11.344828s-18.1106383-19.367241-18.5148937-25.444827l12.4510639-10.656035 16.1702127 10.534483S67.712766 269.196552 70.5425532 277.3c1.4553191 4.132759 4.8914894 7.617241 7.9234042 10.088793 3.4765958 2.836207 5.5787235 6.968966 5.8212766 11.425862z" fill="#003B36"/>
      <path d="M84.287234 298.814655l-6.0638297-1.215517-19-11.344828s-18.1106383-19.367241-18.5148937-25.444827l12.4510639-10.656035 16.1702127 10.534483S67.712766 269.196552 70.5425532 277.3c1.4553191 4.132759 4.8914894 7.617241 7.9234042 10.088793 3.4765958 2.836207 5.5787235 6.968966 5.8212766 11.425862z" fill="url(#n)" opacity=".5"/>
      <path d="M99.8510638 85.0862069c0 4.862069-5.6595744 25.5258621-5.6595744 25.5258621l-22.6382979 59.560345-51.7446809 11.344827S2.4255319 175.844828.4042553 167.741379C-1.6170213 159.637931 16.1702128 128.439655 19.8085106 117.5c3.6382979-10.939655 20.212766-47.4051724 25.4680851-55.5086207 5.2553192-8.1034483 14.5531915-19.4482759 22.6382979-20.2586207 0 0 .1212766-1.0534483.8893617-1.9448276.2425532-.2836207.5659575-.5672413 1.0106383-.7698276.7680851-.3646551 1.8595745-.5267241 3.3553192-.1215517 4.8510638 1.2155173 9.7021276 2.8362069 13.7446808 12.5603449 1.9 4.537931 4.8510638 11.1422413 7.4787234 17.3818965.4446809 1.0939655.8893617 2.1474138 1.3340426 3.2008621 2.3042553 5.7939655 4.1234042 10.8586207 4.1234042 13.0465517z" fill="#02BFAE"/>
      <path d="M99.8510638 85.0862069c0 4.862069-5.6595744 25.5258621-5.6595744 25.5258621l-22.6382979 59.560345-51.7446809 11.344827S2.4255319 175.844828.4042553 167.741379C-1.6170213 159.637931 16.1702128 128.439655 19.8085106 117.5c3.6382979-10.939655 20.212766-47.4051724 25.4680851-55.5086207 5.2553192-8.1034483 14.5531915-19.4482759 22.6382979-20.2586207 0 0 .1212766-1.0534483.8893617-1.9448276.2425532-.2836207.5659575-.5672413 1.0106383-.7698276.7680851-.3646551 1.8595745-.5267241 3.3553192-.1215517 4.8510638 1.2155173 9.7021276 2.8362069 13.7446808 12.5603449 1.9 4.537931 4.8510638 11.1422413 7.4787234 17.3818965.4446809 1.0939655.8893617 2.1474138 1.3340426 3.2008621 2.3042553 5.7939655 4.1234042 10.8586207 4.1234042 13.0465517z" fill="url(#o)" opacity=".5"/>
      <path d="M85.7021277 156.801724s-26.6808511 14.181035-28.2978724 15.396552c-1.6170213 1.215517-21.8297872-10.534483-21.8297872-10.534483l-7.6808511-51.051724s19.8085107 8.913793 29.9148936 9.724138c9.8234043.769827 24.2148937-3.038793 27.6106383-.243104.0808511.081035.2021277.162069.2829788.243104 2.8297872 3.241379 0 36.465517 0 36.465517z" fill="#C6692A"/>
      <path d="M89.7446809 122.443103v52.996552H10.2276596c.5659574-3.200862 1.1723404-6.685345 1.9-10.534483 6.4680851-35.655172 11.3191489-55.50862 15.7659574-54.293103 0 0 19.8085107 8.913793 29.9148936 9.724138 9.8234043.769827 24.2148937-3.038793 27.6106383-.243104.1617022-.364655.2829788-.567241.2829788-.567241s1.8191489.324138 4.0425532 2.917241z" fill="url(#p)"/>
      <ellipse fill="#003B36" cx="83.6808511" cy="309.956897" rx="5.6595745" ry="5.6724138"/>
      <path d="M66.1765957 296.018966c-.5659574.72931-1.374468 1.134482-2.2638297 1.134482-.5659575 0-1.1723405-.162069-1.6574469-.567241l-9.580851-7.171552c-1.2531915-.931896-1.4957447-2.674138-.5659575-3.930172.5659575-.729311 1.4148937-1.134483 2.2638298-1.134483.5659575 0 1.1723405.162069 1.6574468.567241l9.5808511 7.171552c1.212766.891379 1.4957447 2.674138.5659574 3.930173zm47.3382983 28.2c0 1.377586-1.010639 2.552586-2.385107 2.755172l-11.8446806 1.742241c-1.5361702.243104-2.9510638-.850862-3.1531915-2.390517 0-.121552-.0404255-.283621-.0404255-.405172 0-1.377587 1.0106383-2.552587 2.3851063-2.755173l11.8446813-1.742241c1.53617-.202586 2.951063.850862 3.193617 2.390517v.405173z" fill="#7D1230"/>
      <path d="M66.1765957 296.018966c-.5659574.72931-1.374468 1.134482-2.2638297 1.134482-.5659575 0-1.1723405-.162069-1.6574469-.567241l-9.580851-7.171552c-1.2531915-.931896-1.4957447-2.674138-.5659575-3.930172.5659575-.729311 1.4148937-1.134483 2.2638298-1.134483.5659575 0 1.1723405.162069 1.6574468.567241l9.5808511 7.171552c1.212766.891379 1.4957447 2.674138.5659574 3.930173z" fill="url(#q)"/>
      <path d="M113.514894 324.218966c0 1.377586-1.010639 2.552586-2.385107 2.755172l-11.8446806 1.742241c-1.5361702.243104-2.9510638-.850862-3.1531915-2.390517 0-.121552-.0404255-.283621-.0404255-.405172 0-1.377587 1.0106383-2.552587 2.3851063-2.755173l11.8446813-1.742241c1.53617-.202586 2.951063.850862 3.193617 2.390517v.405173z" fill="url(#r)"/>
      <path d="M80.9723404 305.216379l23.0021276 17.219828c.72766.526724.848936 1.539655.323404 2.268965-.525532.729311-1.53617.850862-2.263829.324138l-23.0021281-17.219827 1.9404255-2.593104z" fill="#003B36"/>
      <path d="M109.148936 235c-9.2978722 6.482759-31.1276594 35.25-31.1276594 35.25-8.0851064-2.431034-29.5106383-16.612069-29.5106383-16.612069 7.0744681-7.900862 11.1170213-18.030172 17.5851064-24.918103 6.4680851-6.887931 27.6914893-56.521552 27.6914893-56.521552s23.851064 18.637931 31.531915 27.146552C133 207.853448 118.446809 228.517241 109.148936 235z" fill="#02BFAE"/>
      <path d="M109.148936 235c-9.2978722 6.482759-31.1276594 35.25-31.1276594 35.25-.4042553-.121552-.8893617-.283621-1.3744681-.486207-.3638298-.121552-.7276596-.283621-1.1319149-.44569-9.2978723-3.970689-27.0042553-15.680172-27.0042553-15.680172 7.0744681-7.900862 11.1170213-18.030172 17.5851064-24.918103 6.4680851-6.887931 27.6914893-56.521552 27.6914893-56.521552s23.851064 18.637931 31.531915 27.146552C133 207.853448 118.446809 228.517241 109.148936 235z" fill="url(#s)" opacity=".5"/>
      <path d="M53.8468085 50.8896552C39.3340426 68.15 27.893617 110.612069 27.893617 110.612069l-8.4893617 19.043103c13.6234043-64.3008617 34.119149-78.5629306 34.4425532-78.7655168z" fill="#FE9240"/>
      <path d="M53.8468085 50.8896552C39.3340426 68.15 27.893617 110.612069 27.893617 110.612069l-8.4893617 19.043103c13.6234043-64.3008617 34.119149-78.5629306 34.4425532-78.7655168z" fill="url(#t)" opacity=".64"/>
      <path d="M117.597872 217.375c-1.940425 1.418103-3.961702 2.876724-5.295744 5.186207-3.517022 6.158621-8.085107 13.330172-18.3531918 20.866379-8.4893617 6.239655-15.2404256 21.312069-17.3021277 26.376724-.3638298-.121551-.7276596-.28362-1.1319149-.445689 2.1021277-5.186207 8.8531915-20.42069 17.706383-26.903449 10.0659574-7.374138 14.4319144-14.140517 18.0297874-20.461206 1.455319-2.552587 3.678723-4.132759 5.619149-5.550863 2.587234-1.863793 4.60851-3.322413 4.406383-6.239655-.323405-4.375862-14.148936-11.628448-19.444681-14.1l.485106-1.093965c2.021277.931896 19.72766 9.237931 20.172341 15.112931.242553 3.484483-2.26383 5.307758-4.89149 7.252586z" fill="#7D1230"/>
      <path d="M107.531915 190.025862c-.808511 7.698276-6.468085 24.310345-5.659575 32.008621.808511 7.698276-50.5319145 21.068965-73.978723 2.836207-3.5574468-2.755173-6.5085106-5.226724-9.0148936-7.576724-12.2085106-11.506897-12.4510638-19.772414-8.6510638-41.854311.5659574-3.200862 1.1723404-6.685345 1.9-10.534483 6.4680851-35.655172 11.3191489-55.50862 15.7659574-54.293103.2425532.769828 7.7617021 25.647414 14.1489362 35.655172C48.5106383 156.396552 54.9787234 164.5 61.8510638 160.043103c3.8808511-2.512069 10.9553192-15.112931 16.412766-25.566379 3.5170213-6.725862 6.306383-12.600862 7.1553191-14.383621.1617022-.364655.2829788-.567241.2829788-.567241s1.8191489.324138 4.0425532 2.917241c2.0617021 2.431035 4.487234 6.887931 6.0638297 14.910345 3.2340426 16.612069 12.5319154 44.974138 11.7234044 52.672414z" fill="#FE9240"/>
      <path d="M107.531915 190.025862c-.808511 7.698276-6.468085 24.310345-5.659575 32.008621.808511 7.698276-50.5319145 21.068965-73.978723 2.836207-3.5574468-2.755173-6.5085106-5.226724-9.0148936-7.576724-13.9468085-13.168104-12.2489362-22.122414-6.7510638-52.388794 6.4680851-35.655172 11.3191489-55.50862 15.7659574-54.293103 0 0 7.6808511 25.525862 14.1489362 35.655172C48.5106383 156.396552 54.9787234 164.5 61.8510638 160.043103c3.8808511-2.512069 10.9553192-15.112931 16.412766-25.566379 4.2042553-8.103448 7.4382979-14.950862 7.4382979-14.950862s6.8723404 1.215517 10.1063829 17.827586c3.2340426 16.612069 12.5319154 44.974138 11.7234044 52.672414z" fill="url(#u)" opacity=".64"/>
      <path d="M107.531915 190.025862c-.808511 7.698276-6.468085 24.310345-5.659575 32.008621.808511 7.698276-50.5319145 21.068965-73.978723 2.836207-3.5574468-2.755173-6.5085106-5.226724-9.0148936-7.576724 4.1638298-.526725 9.1361702-1.296552 15.0787234-2.552587 21.5872341-4.659482 39.0510638-8.427586 46.0851064-21.068965 3.1127659-5.59138 1.9404255-8.832759-.4042553-38.896552-.6468085-8.346552-1.0914894-14.991379-1.3744681-20.299138 4.2042553-8.103448 7.4382979-14.950862 7.4382979-14.950862s6.8723404 1.215517 10.1063829 17.827586c3.2340426 16.612069 12.5319154 44.974138 11.7234044 52.672414z" fill="url(#v)" opacity=".64"/>
      <path d="M111.37234 167.538793s-21.4255315-22.284483-37.9999996-48.012931C56.7978723 93.7974138 51.9468085 73.9439655 57.606383 65.8405172c5.6595744-8.1034482 22.6382979-10.9396551 29.5106383 0 6.8723404 10.9396552 2.8297872 24.7155173 9.2978723 38.4913798 6.4680854 13.775862 8.8936174 10.939655 11.3191494 17.422413 2.425531 6.482759 19 31.198276 18.595744 33.629311-.404255 2.431034-7.276596 10.12931-14.957447 12.155172z" fill="#02BFAE"/>
      <path d="M83.6808511 300.637931s-12.2085107-3.606034-19.0404256-8.873276c-6.8319149-5.307758-30.2787234-23.945689-30.2787234-23.945689l6.3872341-7.009483s7.1957447 7.617241 14.4723404 16.125862c7.2765957 8.508621 9.2978723 11.344827 14.5531915 14.181034 5.2553191 2.836207 14.5531915 7.698276 14.5531915 7.698276l-.6468085 1.823276z" fill="#001916"/>
      <path d="M108.623404 23.4594828s4.972341 4.0922413 15.078724 3.6870689c0 0-2.425532-4.4568965-8.893617-8.1034483-6.468085-3.6465517-6.185107 4.4163794-6.185107 4.4163794z" fill="#00110F"/>
      <path d="M115.819149 11.5474138c-2.829787 5.2672414-35.9787235 14.5862069-35.9787235 14.5862069l-8.893617 1.6206896s-4.8106383-2.5931034-5.2148936-6.4017241c-.0404255-.162069-.0404255-.3241379-.0404255-.5267241v-.2025862c0-.162069.0404255-.3646552.080851-.5267242l.1212766-.3646551C67.1468085 15.9232759 74.1 11.2232759 78.2234043 8.9137931c.1212766-.0810345.2829787-.162069.4042553-.2025862 4.4468085-2.4310345 9.7021276-4.0517241 9.7021276-4.0517241.606383-.162069 22.9617018-5.6318966 25.0234038-4.0517242.202128.162069.444681.4051724.687235.6077586.323404.324138.687234.7293104 1.010638 1.175.040425.0810345.121276.162069.161702.2431035 1.576596 2.0663793 2.62766 5.1862069.606383 8.9137931z" fill="#02BFAE"/>
      <path d="M116.829787 20.2586207c-20.2127657 8.9137931-46.4893615 11.75-46.4893615 11.75-.2021276-2.6336207-1.0106383-5.4698276-1.0106383-5.4698276 4.8510639.4051724 15.7659575-3.2413793 25.8723405-6.0775862C105.308511 17.625 115.617021 11.3448276 115.617021 11.3448276c0 5.6724138 1.212766 8.9137931 1.212766 8.9137931z" fill="#02BFAE"/>
      <ellipse fill="#001916" cx="134.212766" cy="179.491379" rx="3.2340425" ry="3.2413793"/>
      <path d="M116.829787 20.2586207c-20.2127657 8.9137931-46.4893615 11.75-46.4893615 11.75-.2021276-2.6336207-1.0106383-5.4698276-1.0106383-5.4698276 4.8510639.4051724 15.7659575-3.2413793 25.8723405-6.0775862C105.308511 17.625 115.617021 11.3448276 115.617021 11.3448276c0 5.6724138 1.212766 8.9137931 1.212766 8.9137931z" fill="url(#w)" opacity=".5"/>
      <path d="M115.131915 2.3905296c-3.274468 5.4293434-10.914894 10.6155819-35.4936171 17.0578626-4.7702128 1.2560421-10.1872341 1.2155246-13.9468085 1.2156734 0-.1622188.0404255-.3648062.080851-.5268761l.1212766-.3646574C67.1468085 15.9638882 74.1 11.2638595 78.2234043 8.9543627c.1212766-.081035.2829787-.16207.4042553-.2025874 4.4468085-2.4310493 9.7021276-4.0517489 9.7021276-4.0517489.606383-.16207 22.9617018-5.6319308 25.0234038-4.0517488.202128.16207.444681.4051749.687235.6077623.404255.2836224.727659.6887973 1.091489 1.1344897z" fill="url(#x)" opacity=".5"/>
      <path d="M82.8723404 310.848276l-22.9212766-17.462931c-.7276595-.526724-.8489361-1.539655-.3234042-2.268966.5255319-.72931 1.5361702-.850862 2.2638298-.324138l22.9212766 17.462931c.7276595.526725.8489361 1.539656.3234042 2.268966-.5659574.72931-1.5765957.891379-2.2638298.324138z" fill="#003B36"/>
      <path d="M115.293617 2.5931035c-.040426.1215517-.040426.2836206-.080851.4051724-1.617021 5.9560344-15.2 10.6965517-28.3382979 15.3155172l-.7680851.2836207c-6.7510639 2.35-12.1276596 3.0793103-16.0893617 3.0793103-1.6574468 0-3.112766-.1215517-4.2851064-.3241379-.0404255-.162069-.0404255-.3241379-.0404255-.5267241 0-.2431035.0404255-.4862069.080851-.7293104 3.8404256.5672414 10.5106383.6482759 19.9297873-2.6741379l.7680851-.2836207c12.2489361-4.2948276 26.1148932-9.1568966 27.5702132-14.4646552.121276-.4862069.161702-1.012931.080851-1.4991379.363829.4456897.768085.8913793 1.17234 1.4181035zM95.687234 72.0396552c-3.0723404-3.0387931-5.9425531-6.6853449-7.7617021-10.8586207C83.6 51.3353448 73.5340426 43.2318966 68.8042553 39.787931c.2425532-.2836207.5659575-.5672413 1.0106383-.7698276 4.9723404 3.6465518 14.8765958 11.7905173 19.2425532 21.6767242 1.3340426 2.9982758 3.193617 5.712931 5.3361702 8.1439655.4446809 1.0939655.8893617 2.187931 1.293617 3.2008621z" fill="#7D1230"/>
    </g>
  </g>
</svg>
